  0
SECTION
  2
HEADER
  9
$ACADVER
  1
AC1014
  9
$ACADMAINTVER
 70
     9
  9
$DWGCODEPAGE
  3
ANSI_1252
  9
$INSBASE
 10
0.0
 20
0.0
 30
0.0
  9
$EXTMIN
 10
365.2444812908823
 20
-304.1374885804192
 30
-0.0000000009840022
  9
$EXTMAX
 10
733.3058943739067
 20
-92.27809804893134
 30
0.0000000000000284
  9
$LIMMIN
 10
0.0
 20
0.0
  9
$LIMMAX
 10
12.0
 20
9.0
  9
$ORTHOMODE
 70
     0
  9
$REGENMODE
 70
     1
  9
$FILLMODE
 70
     1
  9
$QTEXTMODE
 70
     0
  9
$MIRRTEXT
 70
     1
  9
$DRAGMODE
 70
     2
  9
$LTSCALE
 40
1.0
  9
$OSMODE
 70
    37
  9
$ATTMODE
 70
     1
  9
$TEXTSIZE
 40
0.2
  9
$TRACEWID
 40
0.05
  9
$TEXTSTYLE
  7
STANDARD
  9
$CLAYER
  8
0
  9
$CELTYPE
  6
BYLAYER
  9
$CECOLOR
 62
   256
  9
$CELTSCALE
 40
1.0
  9
$DELOBJ
 70
     1
  9
$DISPSILH
 70
     0
  9
$DIMSCALE
 40
1.0
  9
$DIMASZ
 40
0.18
  9
$DIMEXO
 40
0.0625
  9
$DIMDLI
 40
0.38
  9
$DIMRND
 40
0.0
  9
$DIMDLE
 40
0.0
  9
$DIMEXE
 40
0.18
  9
$DIMTP
 40
0.0
  9
$DIMTM
 40
0.0
  9
$DIMTXT
 40
0.18
  9
$DIMCEN
 40
0.09
  9
$DIMTSZ
 40
0.0
  9
$DIMTOL
 70
     0
  9
$DIMLIM
 70
     0
  9
$DIMTIH
 70
     1
  9
$DIMTOH
 70
     1
  9
$DIMSE1
 70
     0
  9
$DIMSE2
 70
     0
  9
$DIMTAD
 70
     0
  9
$DIMZIN
 70
     0
  9
$DIMBLK
  1

  9
$DIMASO
 70
     1
  9
$DIMSHO
 70
     1
  9
$DIMPOST
  1

  9
$DIMAPOST
  1

  9
$DIMALT
 70
     0
  9
$DIMALTD
 70
     2
  9
$DIMALTF
 40
25.4
  9
$DIMLFAC
 40
1.0
  9
$DIMTOFL
 70
     0
  9
$DIMTVP
 40
0.0
  9
$DIMTIX
 70
     0
  9
$DIMSOXD
 70
     0
  9
$DIMSAH
 70
     0
  9
$DIMBLK1
  1

  9
$DIMBLK2
  1

  9
$DIMSTYLE
  2
STANDARD
  9
$DIMCLRD
 70
     0
  9
$DIMCLRE
 70
     0
  9
$DIMCLRT
 70
     0
  9
$DIMTFAC
 40
1.0
  9
$DIMGAP
 40
0.09
  9
$DIMJUST
 70
     0
  9
$DIMSD1
 70
     0
  9
$DIMSD2
 70
     0
  9
$DIMTOLJ
 70
     1
  9
$DIMTZIN
 70
     0
  9
$DIMALTZ
 70
     0
  9
$DIMALTTZ
 70
     0
  9
$DIMFIT
 70
     5
  9
$DIMUPT
 70
     0
  9
$DIMUNIT
 70
     2
  9
$DIMDEC
 70
     4
  9
$DIMTDEC
 70
     4
  9
$DIMALTU
 70
     2
  9
$DIMALTTD
 70
     2
  9
$DIMTXSTY
  7
STANDARD
  9
$DIMAUNIT
 70
     0
  9
$LUNITS
 70
     2
  9
$LUPREC
 70
     3
  9
$SKETCHINC
 40
0.1
  9
$FILLETRAD
 40
0.5
  9
$AUNITS
 70
     0
  9
$AUPREC
 70
     0
  9
$MENU
  1
.
  9
$ELEVATION
 40
0.0
  9
$PELEVATION
 40
0.0
  9
$THICKNESS
 40
0.0
  9
$LIMCHECK
 70
     0
  9
$CHAMFERA
 40
0.0
  9
$CHAMFERB
 40
0.0
  9
$CHAMFERC
 40
0.0
  9
$CHAMFERD
 40
0.0
  9
$SKPOLY
 70
     0
  9
$TDCREATE
 40
2458029.605488646
  9
$TDUPDATE
 40
2458029.60548875
  9
$TDINDWG
 40
0.0000000116
  9
$TDUSRTIMER
 40
0.0000000116
  9
$USRTIMER
 70
     1
  9
$ANGBASE
 50
0.0
  9
$ANGDIR
 70
     0
  9
$PDMODE
 70
     0
  9
$PDSIZE
 40
0.0
  9
$PLINEWID
 40
0.0
  9
$COORDS
 70
     1
  9
$SPLFRAME
 70
     0
  9
$SPLINETYPE
 70
     6
  9
$SPLINESEGS
 70
     8
  9
$ATTDIA
 70
     0
  9
$ATTREQ
 70
     1
  9
$HANDLING
 70
     1
  9
$HANDSEED
  5
14B
  9
$SURFTAB1
 70
     6
  9
$SURFTAB2
 70
     6
  9
$SURFTYPE
 70
     6
  9
$SURFU
 70
     6
  9
$SURFV
 70
     6
  9
$UCSNAME
  2

  9
$UCSORG
 10
0.0
 20
0.0
 30
0.0
  9
$UCSXDIR
 10
1.0
 20
0.0
 30
0.0
  9
$UCSYDIR
 10
0.0
 20
1.0
 30
0.0
  9
$PUCSNAME
  2

  9
$PUCSORG
 10
0.0
 20
0.0
 30
0.0
  9
$PUCSXDIR
 10
1.0
 20
0.0
 30
0.0
  9
$PUCSYDIR
 10
0.0
 20
1.0
 30
0.0
  9
$USERI1
 70
     0
  9
$USERI2
 70
     0
  9
$USERI3
 70
     0
  9
$USERI4
 70
     0
  9
$USERI5
 70
     0
  9
$USERR1
 40
0.0
  9
$USERR2
 40
0.0
  9
$USERR3
 40
0.0
  9
$USERR4
 40
0.0
  9
$USERR5
 40
0.0
  9
$WORLDVIEW
 70
     1
  9
$SHADEDGE
 70
     3
  9
$SHADEDIF
 70
    70
  9
$TILEMODE
 70
     1
  9
$MAXACTVP
 70
    64
  9
$PINSBASE
 10
0.0
 20
0.0
 30
0.0
  9
$PLIMCHECK
 70
     0
  9
$PEXTMIN
 10
1.000000000000000E+20
 20
1.000000000000000E+20
 30
1.000000000000000E+20
  9
$PEXTMAX
 10
-1.000000000000000E+20
 20
-1.000000000000000E+20
 30
-1.000000000000000E+20
  9
$PLIMMIN
 10
0.0
 20
0.0
  9
$PLIMMAX
 10
12.0
 20
9.0
  9
$UNITMODE
 70
     0
  9
$VISRETAIN
 70
     1
  9
$PLINEGEN
 70
     0
  9
$PSLTSCALE
 70
     1
  9
$TREEDEPTH
 70
  3020
  9
$PICKSTYLE
 70
     1
  9
$CMLSTYLE
  2
STANDARD
  9
$CMLJUST
 70
     0
  9
$CMLSCALE
 40
1.0
  9
$PROXYGRAPHICS
 70
     1
  9
$MEASUREMENT
 70
     0
  0
ENDSEC
  0
SECTION
  2
CLASSES
  0
CLASS
  1
ACDBDICTIONARYWDFLT
  2
AcDbDictionaryWithDefault
  3
ObjectDBX Classes
 90
        0
280
     0
281
     0
  0
CLASS
  1
VISUALSTYLE
  2
AcDbVisualStyle
  3
ObjectDBX Classes
 90
     4095
280
     0
281
     0
  0
CLASS
  1
MATERIAL
  2
AcDbMaterial
  3
ObjectDBX Classes
 90
     1153
280
     0
281
     0
  0
CLASS
  1
SCALE
  2
AcDbScale
  3
ObjectDBX Classes
 90
     1153
280
     0
281
     0
  0
CLASS
  1
TABLESTYLE
  2
AcDbTableStyle
  3
ObjectDBX Classes
 90
     4095
280
     0
281
     0
  0
CLASS
  1
MLEADERSTYLE
  2
AcDbMLeaderStyle
  3
ACDB_MLEADERSTYLE_CLASS
 90
     4095
280
     0
281
     0
  0
CLASS
  1
SUN
  2
AcDbSun
  3
SCENEOE
 90
     1153
280
     0
281
     0
  0
CLASS
  1
DICTIONARYVAR
  2
AcDbDictionaryVar
  3
ObjectDBX Classes
 90
        0
280
     0
281
     0
  0
CLASS
  1
XRECORD
  2
AcDbXrecord
  3
ObjectDBX Classes
 90
        0
280
     0
281
     0
  0
CLASS
  1
LWPOLYLINE
  2
AcDbPolyline
  3
ObjectDBX Classes
 90
        0
280
     0
281
     1
  0
CLASS
  1
HATCH
  2
AcDbHatch
  3
ObjectDBX Classes
 90
        0
280
     0
281
     1
  0
CLASS
  1
ACDBPLACEHOLDER
  2
AcDbPlaceHolder
  3
ObjectDBX Classes
 90
        0
280
     0
281
     0
  0
CLASS
  1
LAYOUT
  2
AcDbLayout
  3
ObjectDBX Classes
 90
        0
280
     0
281
     0
  0
ENDSEC
  0
SECTION
  2
TABLES
  0
TABLE
  2
VPORT
  5
8
102
{ACAD_XDICTIONARY
360
140
102
}
330
0
100
AcDbSymbolTable
 70
     1
  0
VPORT
  5
29
330
8
100
AcDbSymbolTableRecord
100
AcDbViewportTableRecord
  2
*ACTIVE
 70
     0
 10
0.0
 20
0.0
 11
1.0
 21
1.0
 12
549.2751878323945
 22
-198.2077933146753
 13
0.0
 23
0.0
 14
0.5
 24
0.5
 15
0.5
 25
0.5
 16
0.0
 26
0.0
 36
1.0
 17
0.0
 27
0.0
 37
0.0
 40
216.0965783421177
 41
1.737291003054787
 42
50.0
 43
0.0
 44
0.0
 50
0.0
 51
0.0
 71
     0
 72
   100
 73
     1
 74
     3
 75
     0
 76
     0
 77
     0
 78
     0
  0
ENDTAB
  0
TABLE
  2
LTYPE
  5
5
330
0
100
AcDbSymbolTable
 70
     1
  0
LTYPE
  5
14
330
5
100
AcDbSymbolTableRecord
100
AcDbLinetypeTableRecord
  2
BYBLOCK
 70
     0
  3

 72
    65
 73
     0
 40
0.0
  0
LTYPE
  5
15
330
5
100
AcDbSymbolTableRecord
100
AcDbLinetypeTableRecord
  2
BYLAYER
 70
     0
  3

 72
    65
 73
     0
 40
0.0
  0
LTYPE
  5
16
330
5
100
AcDbSymbolTableRecord
100
AcDbLinetypeTableRecord
  2
CONTINUOUS
 70
     0
  3
Solid line
 72
    65
 73
     0
 40
0.0
  0
ENDTAB
  0
TABLE
  2
LAYER
  5
2
330
0
100
AcDbSymbolTable
 70
     3
  0
LAYER
  5
10
330
2
100
AcDbSymbolTableRecord
100
AcDbLayerTableRecord
  2
0
 70
     0
 62
     7
  6
CONTINUOUS
  0
LAYER
  5
6E
330
2
100
AcDbSymbolTableRecord
100
AcDbLayerTableRecord
  2
LASERCUTPIECES$LASERCUT10M
 70
     0
 62
     1
  6
CONTINUOUS
  0
LAYER
  5
88
330
2
100
AcDbSymbolTableRecord
100
AcDbLayerTableRecord
  2
LASERCUTPIECES$LASERCUT100
 70
     0
 62
    80
  6
CONTINUOUS
  0
ENDTAB
  0
TABLE
  2
STYLE
  5
3
330
0
100
AcDbSymbolTable
 70
     1
  0
STYLE
  5
11
330
3
100
AcDbSymbolTableRecord
100
AcDbTextStyleTableRecord
  2
STANDARD
 70
     0
 40
0.0
 41
1.0
 50
0.0
 71
     0
 42
0.2
  3
txt
  4

  0
ENDTAB
  0
TABLE
  2
VIEW
  5
6
330
0
100
AcDbSymbolTable
 70
     0
  0
ENDTAB
  0
TABLE
  2
UCS
  5
7
330
0
100
AcDbSymbolTable
 70
     0
  0
ENDTAB
  0
TABLE
  2
APPID
  5
9
330
0
100
AcDbSymbolTable
 70
     2
  0
APPID
  5
12
330
9
100
AcDbSymbolTableRecord
100
AcDbRegAppTableRecord
  2
ACAD
 70
     0
  0
APPID
  5
14A
330
9
100
AcDbSymbolTableRecord
100
AcDbRegAppTableRecord
  2
ACAD_MLEADERVER
 70
     0
  0
ENDTAB
  0
TABLE
  2
DIMSTYLE
  5
A
330
0
100
AcDbSymbolTable
 70
     1
  0
DIMSTYLE
105
27
330
A
100
AcDbSymbolTableRecord
100
AcDbDimStyleTableRecord
  2
STANDARD
 70
     0
  3

  4

  5

  6

  7

 40
1.0
 41
0.18
 42
0.0625
 43
0.38
 44
0.18
 45
0.0
 46
0.0
 47
0.0
 48
0.0
140
0.18
141
0.09
142
0.0
143
25.4
144
1.0
145
0.0
146
1.0
147
0.09
 71
     0
 72
     0
 73
     1
 74
     1
 75
     0
 76
     0
 77
     0
 78
     0
170
     0
171
     2
172
     0
173
     0
174
     0
175
     0
176
     0
177
     0
178
     0
270
     2
271
     4
272
     4
273
     2
274
     2
340
11
275
     0
280
     0
281
     0
282
     0
283
     1
284
     0
285
     0
286
     0
287
     3
288
     0
  0
ENDTAB
  0
TABLE
  2
BLOCK_RECORD
  5
1
330
0
100
AcDbSymbolTable
 70
     1
  0
BLOCK_RECORD
  5
1F
330
1
100
AcDbSymbolTableRecord
100
AcDbBlockTableRecord
  2
*MODEL_SPACE
  0
BLOCK_RECORD
  5
1B
330
1
100
AcDbSymbolTableRecord
100
AcDbBlockTableRecord
  2
*PAPER_SPACE
  0
ENDTAB
  0
ENDSEC
  0
SECTION
  2
BLOCKS
  0
BLOCK
  5
20
330
1F
100
AcDbEntity
  8
0
100
AcDbBlockBegin
  2
*MODEL_SPACE
 70
     0
 10
0.0
 20
0.0
 30
0.0
  3
*MODEL_SPACE
  1

  0
ENDBLK
  5
21
330
1F
100
AcDbEntity
  8
0
100
AcDbBlockEnd
  0
BLOCK
  5
1C
330
1B
100
AcDbEntity
 67
     1
  8
0
100
AcDbBlockBegin
  2
*PAPER_SPACE
 70
     0
 10
0.0
 20
0.0
 30
0.0
  3
*PAPER_SPACE
  1

  0
ENDBLK
  5
1D
330
1B
100
AcDbEntity
 67
     1
  8
0
100
AcDbBlockEnd
  0
ENDSEC
  0
SECTION
  2
ENTITIES
  0
CIRCLE
  5
6F
330
1F
100
AcDbEntity
  8
LASERCUTPIECES$LASERCUT10M
100
AcDbCircle
 10
565.0427170272587
 20
-127.2780980494279
 30
0.0
 40
1.85
  0
CIRCLE
  5
70
330
1F
100
AcDbEntity
  8
LASERCUTPIECES$LASERCUT10M
100
AcDbCircle
 10
489.5428595104869
 20
-142.7780704796114
 30
0.0
 40
1.500009721300103
  0
CIRCLE
  5
71
330
1F
100
AcDbEntity
  8
LASERCUTPIECES$LASERCUT10M
100
AcDbCircle
 10
520.5426896036437
 20
-142.7781304888915
 30
0.0
 40
1.500009721300017
  0
CIRCLE
  5
72
330
1F
100
AcDbEntity
  8
LASERCUTPIECES$LASERCUT10M
100
AcDbCircle
 10
520.5427012192342
 20
-111.7781139000235
 30
-0.0000000000000284
 40
1.500009721300088
  0
CIRCLE
  5
73
330
1F
100
AcDbEntity
  8
LASERCUTPIECES$LASERCUT10M
100
AcDbCircle
 10
505.0427170272587
 20
-127.2780980494279
 30
0.0
 40
10.99999999999994
  0
CIRCLE
  5
74
330
1F
100
AcDbEntity
  8
LASERCUTPIECES$LASERCUT10M
100
AcDbCircle
 10
489.5427139125803
 20
-111.778088742913
 30
0.0
 40
1.500009721300088
  0
CIRCLE
  5
75
330
1F
100
AcDbEntity
  8
LASERCUTPIECES$LASERCUT10M
100
AcDbCircle
 10
463.4438807388447
 20
-104.3780980489312
 30
-0.0000000000000284
 40
1.600000000000023
  0
CIRCLE
  5
76
330
1F
100
AcDbEntity
  8
LASERCUTPIECES$LASERCUT10M
100
AcDbCircle
 10
463.4438807388447
 20
-150.3670149097022
 30
-0.0000000000000284
 40
1.600000314210323
  0
CIRCLE
  5
77
330
1F
100
AcDbEntity
  8
LASERCUTPIECES$LASERCUT10M
100
AcDbCircle
 10
636.6438807388447
 20
-150.3670149097022
 30
-0.0000000000000284
 40
1.600000314210323
  0
CIRCLE
  5
78
330
1F
100
AcDbEntity
  8
LASERCUTPIECES$LASERCUT10M
100
AcDbCircle
 10
636.6438807388448
 20
-104.3780980489314
 30
-0.0000000000000284
 40
1.600000000000023
  0
CIRCLE
  5
79
330
1F
100
AcDbEntity
  8
LASERCUTPIECES$LASERCUT10M
100
AcDbCircle
 10
675.3290865260971
 20
-138.5666790701018
 30
-0.0000000000000284
 40
4.548132598626353
  0
CIRCLE
  5
7A
330
1F
100
AcDbEntity
  8
LASERCUTPIECES$LASERCUT10M
100
AcDbCircle
 10
690.557992238119
 20
-107.7781684357784
 30
-0.0000000000000284
 40
1.500009721300153
  0
CIRCLE
  5
7B
330
1F
100
AcDbEntity
  8
LASERCUTPIECES$LASERCUT10M
100
AcDbCircle
 10
690.5577126578573
 20
-144.7780650061253
 30
-0.0000000000000284
 40
1.500009721300153
  0
CIRCLE
  5
7C
330
1F
100
AcDbEntity
  8
LASERCUTPIECES$LASERCUT10M
100
AcDbCircle
 10
605.0088548034989
 20
-144.7780650061253
 30
-0.0000000000000284
 40
1.500009721300126
  0
CIRCLE
  5
7D
330
1F
100
AcDbEntity
  8
LASERCUTPIECES$LASERCUT10M
100
AcDbCircle
 10
605.0085752232372
 20
-107.7781684357784
 30
-0.0000000000000284
 40
1.500009721300078
  0
CIRCLE
  5
7E
330
1F
100
AcDbEntity
  8
LASERCUTPIECES$LASERCUT10M
100
AcDbCircle
 10
559.0438807388261
 20
-100.2780980489314
 30
-0.0000000000000284
 40
1.600000000000108
  0
CIRCLE
  5
7F
330
1F
100
AcDbEntity
  8
LASERCUTPIECES$LASERCUT10M
100
AcDbCircle
 10
541.0438807388261
 20
-100.2780980489314
 30
-0.0000000000000284
 40
1.600000000000122
  0
CIRCLE
  5
80
330
1F
100
AcDbEntity
  8
LASERCUTPIECES$LASERCUT10M
100
AcDbCircle
 10
716.1519733569196
 20
-108.7480980528674
 30
0.0000000000000284
 40
2.5
  0
CIRCLE
  5
81
330
1F
100
AcDbEntity
  8
LASERCUTPIECES$LASERCUT10M
100
AcDbCircle
 10
716.1519733569196
 20
-145.7780980489314
 30
0.0000000000000284
 40
2.5
  0
CIRCLE
  5
82
330
1F
100
AcDbEntity
  8
LASERCUTPIECES$LASERCUT10M
100
AcDbCircle
 10
658.142517534308
 20
-108.7480980528674
 30
0.0
 40
2.499999999999886
  0
CIRCLE
  5
83
330
1F
100
AcDbEntity
  8
LASERCUTPIECES$LASERCUT10M
100
AcDbCircle
 10
658.142517534308
 20
-145.7780980489313
 30
0.0
 40
2.499999999999886
  0
CIRCLE
  5
84
330
1F
100
AcDbEntity
  8
LASERCUTPIECES$LASERCUT10M
100
AcDbCircle
 10
441.9452439433812
 20
-145.7780980489313
 30
0.0
 40
2.5
  0
CIRCLE
  5
85
330
1F
100
AcDbEntity
  8
LASERCUTPIECES$LASERCUT10M
100
AcDbCircle
 10
441.9452439433812
 20
-108.7480980528674
 30
0.0
 40
2.5
  0
CIRCLE
  5
86
330
1F
100
AcDbEntity
  8
LASERCUTPIECES$LASERCUT10M
100
AcDbCircle
 10
383.9357881207698
 20
-145.7780980489313
 30
0.0000000000000284
 40
2.5
  0
CIRCLE
  5
87
330
1F
100
AcDbEntity
  8
LASERCUTPIECES$LASERCUT10M
100
AcDbCircle
 10
383.9357881207698
 20
-108.7480980528674
 30
0.0000000000000284
 40
2.5
  0
POLYLINE
  5
89
330
1F
100
AcDbEntity
  8
LASERCUTPIECES$LASERCUT100
100
AcDb2dPolyline
 66
     1
 10
0.0
 20
0.0
 30
0.0
 70
     1
  0
VERTEX
  5
8A
330
89
100
AcDbEntity
  8
LASERCUTPIECES$LASERCUT100
100
AcDbVertex
100
AcDb2dVertex
 10
733.3058943739067
 20
-92.27809804893134
 30
0.0
  0
VERTEX
  5
8B
330
89
100
AcDbEntity
  8
LASERCUTPIECES$LASERCUT100
100
AcDbVertex
100
AcDb2dVertex
 10
366.7818671037828
 20
-92.27809804893134
 30
0.0
  0
VERTEX
  5
8C
330
89
100
AcDbEntity
  8
LASERCUTPIECES$LASERCUT100
100
AcDbVertex
100
AcDb2dVertex
 10
366.7818671037828
 20
-162.2780980489313
 30
0.0
  0
VERTEX
  5
8D
330
89
100
AcDbEntity
  8
LASERCUTPIECES$LASERCUT100
100
AcDbVertex
100
AcDb2dVertex
 10
733.3058943739067
 20
-162.2780980480308
 30
0.0
  0
SEQEND
  5
8E
330
89
100
AcDbEntity
  8
LASERCUTPIECES$LASERCUT100
  0
POLYLINE
  5
8F
330
1F
100
AcDbEntity
  8
LASERCUTPIECES$LASERCUT10M
100
AcDb2dPolyline
 66
     1
 10
0.0
 20
0.0
 30
0.0
 70
     1
  0
VERTEX
  5
90
330
8F
100
AcDbEntity
  8
LASERCUTPIECES$LASERCUT10M
100
AcDbVertex
100
AcDb2dVertex
 10
428.996909827956
 20
-239.8730500946861
 30
0.0
  0
VERTEX
  5
91
330
8F
100
AcDbEntity
  8
LASERCUTPIECES$LASERCUT10M
100
AcDbVertex
100
AcDb2dVertex
 10
448.996909827956
 20
-239.8730500946861
 30
0.0
  0
VERTEX
  5
92
330
8F
100
AcDbEntity
  8
LASERCUTPIECES$LASERCUT10M
100
AcDbVertex
100
AcDb2dVertex
 10
448.996909827956
 20
-244.8730500946861
 30
0.0
  0
VERTEX
  5
93
330
8F
100
AcDbEntity
  8
LASERCUTPIECES$LASERCUT10M
100
AcDbVertex
100
AcDb2dVertex
 10
428.996909827956
 20
-244.8730500946861
 30
0.0
  0
SEQEND
  5
94
330
8F
100
AcDbEntity
  8
LASERCUTPIECES$LASERCUT10M
  0
POLYLINE
  5
95
330
1F
100
AcDbEntity
  8
LASERCUTPIECES$LASERCUT10M
100
AcDb2dPolyline
 66
     1
 10
0.0
 20
0.0
 30
0.0
 70
     1
  0
VERTEX
  5
96
330
95
100
AcDbEntity
  8
LASERCUTPIECES$LASERCUT10M
100
AcDbVertex
100
AcDb2dVertex
 10
444.996909827956
 20
-247.8730500946861
 30
0.0
  0
VERTEX
  5
97
330
95
100
AcDbEntity
  8
LASERCUTPIECES$LASERCUT10M
100
AcDbVertex
100
AcDb2dVertex
 10
432.996909827956
 20
-247.8730500946861
 30
0.0
  0
VERTEX
  5
98
330
95
100
AcDbEntity
  8
LASERCUTPIECES$LASERCUT10M
100
AcDbVertex
100
AcDb2dVertex
 10
432.996909827956
 20
-254.8730500946861
 30
0.0
  0
VERTEX
  5
99
330
95
100
AcDbEntity
  8
LASERCUTPIECES$LASERCUT10M
100
AcDbVertex
100
AcDb2dVertex
 10
444.996909827956
 20
-254.8730500946861
 30
0.0
  0
SEQEND
  5
9A
330
95
100
AcDbEntity
  8
LASERCUTPIECES$LASERCUT10M
  0
POLYLINE
  5
9B
330
1F
100
AcDbEntity
  8
LASERCUTPIECES$LASERCUT10M
100
AcDb2dPolyline
 66
     1
 10
0.0
 20
0.0
 30
0.0
 70
     1
  0
VERTEX
  5
9C
330
9B
100
AcDbEntity
  8
LASERCUTPIECES$LASERCUT10M
100
AcDbVertex
100
AcDb2dVertex
 10
636.5156622835964
 20
-238.9509635330762
 30
0.0
  0
VERTEX
  5
9D
330
9B
100
AcDbEntity
  8
LASERCUTPIECES$LASERCUT10M
100
AcDbVertex
100
AcDb2dVertex
 10
616.5156622835964
 20
-238.9509635330762
 30
0.0
  0
VERTEX
  5
9E
330
9B
100
AcDbEntity
  8
LASERCUTPIECES$LASERCUT10M
100
AcDbVertex
100
AcDb2dVertex
 10
616.5156622835964
 20
-233.9509635330762
 30
0.0
  0
VERTEX
  5
9F
330
9B
100
AcDbEntity
  8
LASERCUTPIECES$LASERCUT10M
100
AcDbVertex
100
AcDb2dVertex
 10
636.5156622835964
 20
-233.9509635330762
 30
0.0
  0
SEQEND
  5
A0
330
9B
100
AcDbEntity
  8
LASERCUTPIECES$LASERCUT10M
  0
POLYLINE
  5
A1
330
1F
100
AcDbEntity
  8
LASERCUTPIECES$LASERCUT10M
100
AcDb2dPolyline
 66
     1
 10
0.0
 20
0.0
 30
0.0
 70
     1
  0
VERTEX
  5
A2
330
A1
100
AcDbEntity
  8
LASERCUTPIECES$LASERCUT10M
100
AcDbVertex
100
AcDb2dVertex
 10
620.5156622835964
 20
-230.9509635330762
 30
0.0
  0
VERTEX
  5
A3
330
A1
100
AcDbEntity
  8
LASERCUTPIECES$LASERCUT10M
100
AcDbVertex
100
AcDb2dVertex
 10
632.5156622835964
 20
-230.9509635330762
 30
0.0
  0
VERTEX
  5
A4
330
A1
100
AcDbEntity
  8
LASERCUTPIECES$LASERCUT10M
100
AcDbVertex
100
AcDb2dVertex
 10
632.5156622835964
 20
-223.9509635330762
 30
0.0
  0
VERTEX
  5
A5
330
A1
100
AcDbEntity
  8
LASERCUTPIECES$LASERCUT10M
100
AcDbVertex
100
AcDb2dVertex
 10
620.5156622835964
 20
-223.9509635330762
 30
0.0
  0
SEQEND
  5
A6
330
A1
100
AcDbEntity
  8
LASERCUTPIECES$LASERCUT10M
  0
LINE
  5
A7
330
1F
100
AcDbEntity
  8
LASERCUTPIECES$LASERCUT100
100
AcDbLine
 10
502.4678885954102
 20
-186.9509635327591
 30
0.0
 11
510.9982388223733
 21
-182.0259635326975
 31
0.0
  0
LINE
  5
A8
330
1F
100
AcDbEntity
  8
LASERCUTPIECES$LASERCUT100
100
AcDbLine
 10
510.9982388223733
 20
-182.0259635326975
 30
0.0
 11
509.6418628723378
 21
-179.6766514735837
 31
0.0
  0
ARC
  5
A9
330
1F
100
AcDbEntity
  8
LASERCUTPIECES$LASERCUT100
100
AcDbCircle
 10
464.1445824033638
 20
-384.5914165152533
 30
0.0
 40
209.9048914679102
100
AcDbArc
 50
77.48167325093443
 51
102.5183267490653
  0
LINE
  5
AA
330
1F
100
AcDbEntity
  8
LASERCUTPIECES$LASERCUT100
100
AcDbLine
 10
418.6473019343905
 20
-179.6766514735834
 30
0.0
 11
417.2909259846926
 21
-182.025963532604
 31
0.0
  0
LINE
  5
AB
330
1F
100
AcDbEntity
  8
LASERCUTPIECES$LASERCUT100
100
AcDbLine
 10
417.2909259846926
 20
-182.025963532604
 30
0.0
 11
425.8212762119506
 21
-186.9509635326363
 31
0.0
  0
LINE
  5
AC
330
1F
100
AcDbEntity
  8
LASERCUTPIECES$LASERCUT100
100
AcDbLine
 10
425.8212762119506
 20
-186.9509635326363
 30
0.0
 11
365.2444812908823
 21
-291.8730500946862
 31
0.0
  0
LINE
  5
AD
330
1F
100
AcDbEntity
  8
LASERCUTPIECES$LASERCUT100
100
AcDbLine
 10
365.2444812908823
 20
-291.8730500946862
 30
0.0
 11
411.2295561822525
 21
-291.8730500946861
 31
0.0
  0
ARC
  5
AE
330
1F
100
AcDbEntity
  8
LASERCUTPIECES$LASERCUT100
100
AcDbCircle
 10
464.1445824033638
 20
-384.5914165152533
 30
0.0
 40
106.7553065270268
100
AcDbArc
 50
60.28629209719649
 51
119.7137079026352
  0
LINE
  5
AF
330
1F
100
AcDbEntity
  8
LASERCUTPIECES$LASERCUT100
100
AcDbLine
 10
517.0596086248361
 20
-291.8730500946862
 30
0.0
 11
563.0446835161422
 21
-291.8730500950031
 31
0.0
  0
CIRCLE
  5
B0
330
1F
100
AcDbEntity
  8
LASERCUTPIECES$LASERCUT10M
100
AcDbCircle
 10
434.1445824033636
 20
-233.0730500946861
 30
0.0
 40
3.9
  0
CIRCLE
  5
B1
330
1F
100
AcDbEntity
  8
LASERCUTPIECES$LASERCUT10M
100
AcDbCircle
 10
494.1445824033636
 20
-233.0730500946861
 30
0.0
 40
3.9
  0
CIRCLE
  5
B2
330
1F
100
AcDbEntity
  8
LASERCUTPIECES$LASERCUT10M
100
AcDbCircle
 10
464.1445824035302
 20
-271.2137632517399
 30
0.0
 40
1.5
  0
CIRCLE
  5
B3
330
1F
100
AcDbEntity
  8
LASERCUTPIECES$LASERCUT10M
100
AcDbCircle
 10
476.9945824033637
 20
-190.6730500946861
 30
0.0
 40
1.5
  0
CIRCLE
  5
B4
330
1F
100
AcDbEntity
  8
LASERCUTPIECES$LASERCUT10M
100
AcDbCircle
 10
451.2945824033636
 20
-190.6730500946861
 30
0.0
 40
1.5
  0
CIRCLE
  5
B5
330
1F
100
AcDbEntity
  8
LASERCUTPIECES$LASERCUT10M
100
AcDbCircle
 10
416.2291156610488
 20
-281.8363664865194
 30
0.0
 40
1.5
  0
CIRCLE
  5
B6
330
1F
100
AcDbEntity
  8
LASERCUTPIECES$LASERCUT10M
100
AcDbCircle
 10
512.0600491459803
 20
-281.8363664866603
 30
0.0
 40
1.5
  0
LINE
  5
B7
330
1F
100
AcDbEntity
  8
LASERCUTPIECES$LASERCUT10M
100
AcDbLine
 10
473.9945824033637
 20
-221.7230500946861
 30
0.0
 11
473.9945824033637
 21
-202.0230500946861
 31
0.0
  0
LINE
  5
B8
330
1F
100
AcDbEntity
  8
LASERCUTPIECES$LASERCUT10M
100
AcDbLine
 10
473.9945824033637
 20
-202.0230500946861
 30
0.0
 11
454.2945824033636
 21
-202.0230500946861
 31
0.0
  0
LINE
  5
B9
330
1F
100
AcDbEntity
  8
LASERCUTPIECES$LASERCUT10M
100
AcDbLine
 10
454.2945824033636
 20
-202.0230500946861
 30
0.0
 11
454.2945824033636
 21
-221.7230500946861
 31
0.0
  0
LINE
  5
BA
330
1F
100
AcDbEntity
  8
LASERCUTPIECES$LASERCUT10M
100
AcDbLine
 10
454.2945824033636
 20
-221.7230500946861
 30
0.0
 11
473.9945824033637
 21
-221.7230500946861
 31
0.0
  0
CIRCLE
  5
BB
330
1F
100
AcDbEntity
  8
LASERCUTPIECES$LASERCUT10M
100
AcDbCircle
 10
434.2945824033636
 20
-258.0730500946861
 30
0.0
 40
1.5
  0
CIRCLE
  5
BC
330
1F
100
AcDbEntity
  8
LASERCUTPIECES$LASERCUT10M
100
AcDbCircle
 10
493.9945824033637
 20
-258.0730500946861
 30
0.0
 40
1.5
  0
CIRCLE
  5
BD
330
1F
100
AcDbEntity
  8
LASERCUTPIECES$LASERCUT10M
100
AcDbCircle
 10
484.9945824033637
 20
-233.0730500946861
 30
0.0
 40
1.5
  0
CIRCLE
  5
BE
330
1F
100
AcDbEntity
  8
LASERCUTPIECES$LASERCUT10M
100
AcDbCircle
 10
443.2945824033636
 20
-233.0730500946861
 30
0.0
 40
1.5
  0
POLYLINE
  5
BF
330
1F
100
AcDbEntity
  8
LASERCUTPIECES$LASERCUT10M
100
AcDb2dPolyline
 66
     1
 10
0.0
 20
0.0
 30
0.0
 70
     1
  0
VERTEX
  5
C0
330
BF
100
AcDbEntity
  8
LASERCUTPIECES$LASERCUT10M
100
AcDbVertex
100
AcDb2dVertex
 10
474.2945824033636
 20
-227.0730500946861
 30
0.0
  0
VERTEX
  5
C1
330
BF
100
AcDbEntity
  8
LASERCUTPIECES$LASERCUT10M
100
AcDbVertex
100
AcDb2dVertex
 10
454.2945824033636
 20
-227.0730500946861
 30
0.0
  0
VERTEX
  5
C2
330
BF
100
AcDbEntity
  8
LASERCUTPIECES$LASERCUT10M
100
AcDbVertex
100
AcDb2dVertex
 10
454.2945824033636
 20
-239.0730500946861
 30
0.0
  0
VERTEX
  5
C3
330
BF
100
AcDbEntity
  8
LASERCUTPIECES$LASERCUT10M
100
AcDbVertex
100
AcDb2dVertex
 10
474.2945824033636
 20
-239.0730500946861
 30
0.0
  0
SEQEND
  5
C4
330
BF
100
AcDbEntity
  8
LASERCUTPIECES$LASERCUT10M
  0
POLYLINE
  5
C5
330
1F
100
AcDbEntity
  8
LASERCUTPIECES$LASERCUT10M
100
AcDb2dPolyline
 66
     1
 10
0.0
 20
0.0
 30
0.0
 70
     1
  0
VERTEX
  5
C6
330
C5
100
AcDbEntity
  8
LASERCUTPIECES$LASERCUT10M
100
AcDbVertex
100
AcDb2dVertex
 10
494.2945824033636
 20
-221.8730500946861
 30
0.0
  0
VERTEX
  5
C7
330
C5
100
AcDbEntity
  8
LASERCUTPIECES$LASERCUT10M
100
AcDbVertex
100
AcDb2dVertex
 10
479.2945824033636
 20
-221.8730500946861
 30
0.0
  0
VERTEX
  5
C8
330
C5
100
AcDbEntity
  8
LASERCUTPIECES$LASERCUT10M
100
AcDbVertex
100
AcDb2dVertex
 10
479.2945824033636
 20
-225.8730500946861
 30
0.0
  0
VERTEX
  5
C9
330
C5
100
AcDbEntity
  8
LASERCUTPIECES$LASERCUT10M
100
AcDbVertex
100
AcDb2dVertex
 10
494.2945824033636
 20
-225.8730500946861
 30
0.0
  0
SEQEND
  5
CA
330
C5
100
AcDbEntity
  8
LASERCUTPIECES$LASERCUT10M
  0
POLYLINE
  5
CB
330
1F
100
AcDbEntity
  8
LASERCUTPIECES$LASERCUT10M
100
AcDb2dPolyline
 66
     1
 10
0.0
 20
0.0
 30
0.0
 70
     1
  0
VERTEX
  5
CC
330
CB
100
AcDbEntity
  8
LASERCUTPIECES$LASERCUT10M
100
AcDbVertex
100
AcDb2dVertex
 10
433.996909827956
 20
-221.8730500946861
 30
0.0
  0
VERTEX
  5
CD
330
CB
100
AcDbEntity
  8
LASERCUTPIECES$LASERCUT10M
100
AcDbVertex
100
AcDb2dVertex
 10
448.996909827956
 20
-221.8730500946861
 30
0.0
  0
VERTEX
  5
CE
330
CB
100
AcDbEntity
  8
LASERCUTPIECES$LASERCUT10M
100
AcDbVertex
100
AcDb2dVertex
 10
448.996909827956
 20
-225.8730500946861
 30
0.0
  0
VERTEX
  5
CF
330
CB
100
AcDbEntity
  8
LASERCUTPIECES$LASERCUT10M
100
AcDbVertex
100
AcDb2dVertex
 10
433.996909827956
 20
-225.8730500946861
 30
0.0
  0
SEQEND
  5
D0
330
CB
100
AcDbEntity
  8
LASERCUTPIECES$LASERCUT10M
  0
POLYLINE
  5
D1
330
1F
100
AcDbEntity
  8
LASERCUTPIECES$LASERCUT10M
100
AcDb2dPolyline
 66
     1
 10
0.0
 20
0.0
 30
0.0
 70
     1
  0
VERTEX
  5
D2
330
D1
100
AcDbEntity
  8
LASERCUTPIECES$LASERCUT10M
100
AcDbVertex
100
AcDb2dVertex
 10
494.2945824033636
 20
-239.8730500946861
 30
0.0
  0
VERTEX
  5
D3
330
D1
100
AcDbEntity
  8
LASERCUTPIECES$LASERCUT10M
100
AcDbVertex
100
AcDb2dVertex
 10
479.2945824033636
 20
-239.8730500946861
 30
0.0
  0
VERTEX
  5
D4
330
D1
100
AcDbEntity
  8
LASERCUTPIECES$LASERCUT10M
100
AcDbVertex
100
AcDb2dVertex
 10
479.2945824033636
 20
-244.8730500946861
 30
0.0
  0
VERTEX
  5
D5
330
D1
100
AcDbEntity
  8
LASERCUTPIECES$LASERCUT10M
100
AcDbVertex
100
AcDb2dVertex
 10
494.2945824033636
 20
-244.8730500946861
 30
0.0
  0
SEQEND
  5
D6
330
D1
100
AcDbEntity
  8
LASERCUTPIECES$LASERCUT10M
  0
CIRCLE
  5
D7
330
1F
100
AcDbEntity
  8
LASERCUTPIECES$LASERCUT10M
100
AcDbCircle
 10
419.2528900904711
 20
-213.3977420187373
 30
-0.0000000009840022
 40
2.5
  0
CIRCLE
  5
D8
330
1F
100
AcDbEntity
  8
LASERCUTPIECES$LASERCUT10M
100
AcDbCircle
 10
428.2867441514469
 20
-197.7506477969649
 30
0.0
 40
2.50000000000007
  0
CIRCLE
  5
D9
330
1F
100
AcDbEntity
  8
LASERCUTPIECES$LASERCUT10M
100
AcDbCircle
 10
399.2820162399502
 20
-247.9883101989473
 30
0.0
 40
2.500000000000013
  0
CIRCLE
  5
DA
330
1F
100
AcDbEntity
  8
LASERCUTPIECES$LASERCUT10M
100
AcDbCircle
 10
390.2481621789743
 20
-263.6354044207197
 30
-0.0000000009840022
 40
2.5
  0
CIRCLE
  5
DB
330
1F
100
AcDbEntity
  8
LASERCUTPIECES$LASERCUT10M
100
AcDbCircle
 10
538.0410026280234
 20
-263.6354044204951
 30
-0.0000000009840022
 40
2.5
  0
CIRCLE
  5
DC
330
1F
100
AcDbEntity
  8
LASERCUTPIECES$LASERCUT10M
100
AcDbCircle
 10
529.0071485670002
 20
-247.9883101987501
 30
0.0
 40
2.499999999999886
  0
CIRCLE
  5
DD
330
1F
100
AcDbEntity
  8
LASERCUTPIECES$LASERCUT10M
100
AcDbCircle
 10
500.0024206553506
 20
-197.7506477968559
 30
0.0
 40
2.500000000000113
  0
CIRCLE
  5
DE
330
1F
100
AcDbEntity
  8
LASERCUTPIECES$LASERCUT10M
100
AcDbCircle
 10
509.036274716374
 20
-213.3977420186009
 30
-0.0000000009840022
 40
2.5
  0
CIRCLE
  5
DF
330
1F
100
AcDbEntity
  8
LASERCUTPIECES$LASERCUT10M
100
AcDbCircle
 10
631.3679897081887
 20
-245.7509635330762
 30
0.0
 40
3.9
  0
CIRCLE
  5
E0
330
1F
100
AcDbEntity
  8
LASERCUTPIECES$LASERCUT10M
100
AcDbCircle
 10
571.3679897081887
 20
-245.7509635330762
 30
0.0
 40
3.9
  0
CIRCLE
  5
E1
330
1F
100
AcDbEntity
  8
LASERCUTPIECES$LASERCUT10M
100
AcDbCircle
 10
601.3679897080222
 20
-207.6102503760224
 30
0.0
 40
1.5
  0
CIRCLE
  5
E2
330
1F
100
AcDbEntity
  8
LASERCUTPIECES$LASERCUT10M
100
AcDbCircle
 10
588.5179897081887
 20
-288.1509635330762
 30
0.0
 40
1.5
  0
CIRCLE
  5
E3
330
1F
100
AcDbEntity
  8
LASERCUTPIECES$LASERCUT10M
100
AcDbCircle
 10
614.2179897081887
 20
-288.1509635330762
 30
0.0
 40
1.5
  0
CIRCLE
  5
E4
330
1F
100
AcDbEntity
  8
LASERCUTPIECES$LASERCUT10M
100
AcDbCircle
 10
649.2834564505035
 20
-196.9876471412428
 30
0.0
 40
1.5
  0
CIRCLE
  5
E5
330
1F
100
AcDbEntity
  8
LASERCUTPIECES$LASERCUT10M
100
AcDbCircle
 10
553.452522965572
 20
-196.987647141102
 30
0.0
 40
1.5
  0
LINE
  5
E6
330
1F
100
AcDbEntity
  8
LASERCUTPIECES$LASERCUT10M
100
AcDbLine
 10
591.5179897081887
 20
-257.1009635330762
 30
0.0
 11
591.5179897081887
 21
-276.8009635330762
 31
0.0
  0
LINE
  5
E7
330
1F
100
AcDbEntity
  8
LASERCUTPIECES$LASERCUT10M
100
AcDbLine
 10
591.5179897081887
 20
-276.8009635330762
 30
0.0
 11
611.2179897081887
 21
-276.8009635330762
 31
0.0
  0
LINE
  5
E8
330
1F
100
AcDbEntity
  8
LASERCUTPIECES$LASERCUT10M
100
AcDbLine
 10
611.2179897081887
 20
-276.8009635330762
 30
0.0
 11
611.2179897081887
 21
-257.1009635330762
 31
0.0
  0
LINE
  5
E9
330
1F
100
AcDbEntity
  8
LASERCUTPIECES$LASERCUT10M
100
AcDbLine
 10
611.2179897081887
 20
-257.1009635330762
 30
0.0
 11
591.5179897081887
 21
-257.1009635330762
 31
0.0
  0
CIRCLE
  5
EA
330
1F
100
AcDbEntity
  8
LASERCUTPIECES$LASERCUT10M
100
AcDbCircle
 10
631.2179897081887
 20
-220.7509635330762
 30
0.0
 40
1.5
  0
CIRCLE
  5
EB
330
1F
100
AcDbEntity
  8
LASERCUTPIECES$LASERCUT10M
100
AcDbCircle
 10
571.5179897081887
 20
-220.7509635330762
 30
0.0
 40
1.5
  0
CIRCLE
  5
EC
330
1F
100
AcDbEntity
  8
LASERCUTPIECES$LASERCUT10M
100
AcDbCircle
 10
580.5179897081887
 20
-245.7509635330762
 30
0.0
 40
1.5
  0
CIRCLE
  5
ED
330
1F
100
AcDbEntity
  8
LASERCUTPIECES$LASERCUT10M
100
AcDbCircle
 10
622.2179897081887
 20
-245.7509635330762
 30
0.0
 40
1.5
  0
POLYLINE
  5
EE
330
1F
100
AcDbEntity
  8
LASERCUTPIECES$LASERCUT10M
100
AcDb2dPolyline
 66
     1
 10
0.0
 20
0.0
 30
0.0
 70
     1
  0
VERTEX
  5
EF
330
EE
100
AcDbEntity
  8
LASERCUTPIECES$LASERCUT10M
100
AcDbVertex
100
AcDb2dVertex
 10
591.2179897081887
 20
-251.7509635330762
 30
0.0
  0
VERTEX
  5
F0
330
EE
100
AcDbEntity
  8
LASERCUTPIECES$LASERCUT10M
100
AcDbVertex
100
AcDb2dVertex
 10
611.2179897081887
 20
-251.7509635330762
 30
0.0
  0
VERTEX
  5
F1
330
EE
100
AcDbEntity
  8
LASERCUTPIECES$LASERCUT10M
100
AcDbVertex
100
AcDb2dVertex
 10
611.2179897081887
 20
-239.7509635330762
 30
0.0
  0
VERTEX
  5
F2
330
EE
100
AcDbEntity
  8
LASERCUTPIECES$LASERCUT10M
100
AcDbVertex
100
AcDb2dVertex
 10
591.2179897081887
 20
-239.7509635330762
 30
0.0
  0
SEQEND
  5
F3
330
EE
100
AcDbEntity
  8
LASERCUTPIECES$LASERCUT10M
  0
POLYLINE
  5
F4
330
1F
100
AcDbEntity
  8
LASERCUTPIECES$LASERCUT10M
100
AcDb2dPolyline
 66
     1
 10
0.0
 20
0.0
 30
0.0
 70
     1
  0
VERTEX
  5
F5
330
F4
100
AcDbEntity
  8
LASERCUTPIECES$LASERCUT10M
100
AcDbVertex
100
AcDb2dVertex
 10
571.2179897081887
 20
-256.9509635330762
 30
0.0
  0
VERTEX
  5
F6
330
F4
100
AcDbEntity
  8
LASERCUTPIECES$LASERCUT10M
100
AcDbVertex
100
AcDb2dVertex
 10
586.2179897081887
 20
-256.9509635330762
 30
0.0
  0
VERTEX
  5
F7
330
F4
100
AcDbEntity
  8
LASERCUTPIECES$LASERCUT10M
100
AcDbVertex
100
AcDb2dVertex
 10
586.2179897081887
 20
-252.9509635330762
 30
0.0
  0
VERTEX
  5
F8
330
F4
100
AcDbEntity
  8
LASERCUTPIECES$LASERCUT10M
100
AcDbVertex
100
AcDb2dVertex
 10
571.2179897081887
 20
-252.9509635330762
 30
0.0
  0
SEQEND
  5
F9
330
F4
100
AcDbEntity
  8
LASERCUTPIECES$LASERCUT10M
  0
POLYLINE
  5
FA
330
1F
100
AcDbEntity
  8
LASERCUTPIECES$LASERCUT10M
100
AcDb2dPolyline
 66
     1
 10
0.0
 20
0.0
 30
0.0
 70
     1
  0
VERTEX
  5
FB
330
FA
100
AcDbEntity
  8
LASERCUTPIECES$LASERCUT10M
100
AcDbVertex
100
AcDb2dVertex
 10
631.5156622835964
 20
-256.9509635330762
 30
0.0
  0
VERTEX
  5
FC
330
FA
100
AcDbEntity
  8
LASERCUTPIECES$LASERCUT10M
100
AcDbVertex
100
AcDb2dVertex
 10
616.5156622835964
 20
-256.9509635330762
 30
0.0
  0
VERTEX
  5
FD
330
FA
100
AcDbEntity
  8
LASERCUTPIECES$LASERCUT10M
100
AcDbVertex
100
AcDb2dVertex
 10
616.5156622835964
 20
-252.9509635330762
 30
0.0
  0
VERTEX
  5
FE
330
FA
100
AcDbEntity
  8
LASERCUTPIECES$LASERCUT10M
100
AcDbVertex
100
AcDb2dVertex
 10
631.5156622835964
 20
-252.9509635330762
 30
0.0
  0
SEQEND
  5
FF
330
FA
100
AcDbEntity
  8
LASERCUTPIECES$LASERCUT10M
  0
POLYLINE
  5
100
330
1F
100
AcDbEntity
  8
LASERCUTPIECES$LASERCUT10M
100
AcDb2dPolyline
 66
     1
 10
0.0
 20
0.0
 30
0.0
 70
     1
  0
VERTEX
  5
101
330
100
100
AcDbEntity
  8
LASERCUTPIECES$LASERCUT10M
100
AcDbVertex
100
AcDb2dVertex
 10
571.2179897081887
 20
-238.9509635330762
 30
0.0
  0
VERTEX
  5
102
330
100
100
AcDbEntity
  8
LASERCUTPIECES$LASERCUT10M
100
AcDbVertex
100
AcDb2dVertex
 10
586.2179897081887
 20
-238.9509635330762
 30
0.0
  0
VERTEX
  5
103
330
100
100
AcDbEntity
  8
LASERCUTPIECES$LASERCUT10M
100
AcDbVertex
100
AcDb2dVertex
 10
586.2179897081887
 20
-233.9509635330762
 30
0.0
  0
VERTEX
  5
104
330
100
100
AcDbEntity
  8
LASERCUTPIECES$LASERCUT10M
100
AcDbVertex
100
AcDb2dVertex
 10
571.2179897081887
 20
-233.9509635330762
 30
0.0
  0
SEQEND
  5
105
330
100
100
AcDbEntity
  8
LASERCUTPIECES$LASERCUT10M
  0
CIRCLE
  5
106
330
1F
100
AcDbEntity
  8
LASERCUTPIECES$LASERCUT10M
100
AcDbCircle
 10
646.2596820210813
 20
-265.4262716090249
 30
-0.0000000009840022
 40
2.5
  0
CIRCLE
  5
107
330
1F
100
AcDbEntity
  8
LASERCUTPIECES$LASERCUT10M
100
AcDbCircle
 10
637.2258279601053
 20
-281.0733658307973
 30
0.0
 40
2.500000000000183
  0
CIRCLE
  5
108
330
1F
100
AcDbEntity
  8
LASERCUTPIECES$LASERCUT10M
100
AcDbCircle
 10
666.2305558716021
 20
-230.8357034288149
 30
0.0
 40
2.500000000000069
  0
CIRCLE
  5
109
330
1F
100
AcDbEntity
  8
LASERCUTPIECES$LASERCUT10M
100
AcDbCircle
 10
675.264409932578
 20
-215.1886092070425
 30
-0.0000000009840022
 40
2.5
  0
CIRCLE
  5
10A
330
1F
100
AcDbEntity
  8
LASERCUTPIECES$LASERCUT10M
100
AcDbCircle
 10
527.4715694835289
 20
-215.1886092072671
 30
-0.0000000009840022
 40
2.5
  0
CIRCLE
  5
10B
330
1F
100
AcDbEntity
  8
LASERCUTPIECES$LASERCUT10M
100
AcDbCircle
 10
536.5054235445523
 20
-230.8357034290121
 30
0.0
 40
2.5
  0
CIRCLE
  5
10C
330
1F
100
AcDbEntity
  8
LASERCUTPIECES$LASERCUT10M
100
AcDbCircle
 10
565.5101514562017
 20
-281.0733658309063
 30
0.0
 40
2.500000000000113
  0
CIRCLE
  5
10D
330
1F
100
AcDbEntity
  8
LASERCUTPIECES$LASERCUT10M
100
AcDbCircle
 10
556.4762973951783
 20
-265.4262716091614
 30
-0.0000000009840022
 40
2.5
  0
ARC
  5
10E
330
1F
100
AcDbEntity
  8
LASERCUTPIECES$LASERCUT100
100
AcDbCircle
 10
601.3679897081886
 20
-94.232597112509
 30
0.0
 40
106.7553065270268
100
AcDbArc
 50
240.2862920971965
 51
299.7137079026352
  0
LINE
  5
10F
330
1F
100
AcDbEntity
  8
LASERCUTPIECES$LASERCUT100
100
AcDbLine
 10
548.4529634867163
 20
-186.9509635330761
 30
0.0
 11
502.4678885954102
 21
-186.9509635327591
 31
0.0
  0
LINE
  5
110
330
1F
100
AcDbEntity
  8
LASERCUTPIECES$LASERCUT100
100
AcDbLine
 10
502.4678885954102
 20
-186.9509635327591
 30
0.0
 11
563.0446835161422
 21
-291.8730500950031
 31
0.0
  0
LINE
  5
111
330
1F
100
AcDbEntity
  8
LASERCUTPIECES$LASERCUT100
100
AcDbLine
 10
563.0446835161422
 20
-291.8730500950031
 30
0.0
 11
554.514333289179
 21
-296.7980500950648
 31
0.0
  0
LINE
  5
112
330
1F
100
AcDbEntity
  8
LASERCUTPIECES$LASERCUT100
100
AcDbLine
 10
554.514333289179
 20
-296.7980500950648
 30
0.0
 11
555.8707092392145
 21
-299.1473621541786
 31
0.0
  0
ARC
  5
113
330
1F
100
AcDbEntity
  8
LASERCUTPIECES$LASERCUT100
100
AcDbCircle
 10
601.3679897081886
 20
-94.232597112509
 30
0.0
 40
209.9048914679102
100
AcDbArc
 50
257.4816732509344
 51
282.5183267490653
  0
LINE
  5
114
330
1F
100
AcDbEntity
  8
LASERCUTPIECES$LASERCUT100
100
AcDbLine
 10
646.8652701771618
 20
-299.1473621541788
 30
0.0
 11
648.2216461268597
 21
-296.7980500951583
 31
0.0
  0
LINE
  5
115
330
1F
100
AcDbEntity
  8
LASERCUTPIECES$LASERCUT100
100
AcDbLine
 10
648.2216461268597
 20
-296.7980500951583
 30
0.0
 11
639.6912958996018
 21
-291.873050095126
 31
0.0
  0
LINE
  5
116
330
1F
100
AcDbEntity
  8
LASERCUTPIECES$LASERCUT100
100
AcDbLine
 10
639.6912958996018
 20
-291.873050095126
 30
0.0
 11
700.2680908206701
 21
-186.9509635330761
 31
0.0
  0
LINE
  5
117
330
1F
100
AcDbEntity
  8
LASERCUTPIECES$LASERCUT100
100
AcDbLine
 10
700.2680908206701
 20
-186.9509635330761
 30
0.0
 11
654.2830159292998
 21
-186.9509635330762
 31
0.0
  0
ENDSEC
  0
SECTION
  2
OBJECTS
  0
DICTIONARY
  5
C
330
0
100
AcDbDictionary
  3
ACAD_GROUP
350
D
  3
ACAD_LAYOUT
350
1A
  3
ACAD_MATERIAL
350
43
  3
ACAD_MLEADERSTYLE
350
6B
  3
ACAD_MLINESTYLE
350
17
  3
ACAD_PLOTSETTINGS
350
19
  3
ACAD_SCALELIST
350
47
  3
ACAD_VISUALSTYLE
350
2A
  3
ACDBHEADERROUNDTRIPXREC
350
118
  3
ACDBVARIABLEDICTIONARY
350
139
  0
DICTIONARY
  5
140
330
8
100
AcDbDictionary
280
     1
  3
ACAD_XREC_ROUNDTRIP
360
141
  0
DICTIONARY
  5
D
102
{ACAD_REACTORS
330
C
102
}
330
C
100
AcDbDictionary
  0
DICTIONARY
  5
1A
102
{ACAD_REACTORS
330
C
102
}
330
C
100
AcDbDictionary
  0
DICTIONARY
  5
43
102
{ACAD_REACTORS
330
C
102
}
330
C
100
AcDbDictionary
  3
BYBLOCK
350
45
  3
BYLAYER
350
44
  3
GLOBAL
350
46
  0
DICTIONARY
  5
6B
102
{ACAD_REACTORS
330
C
102
}
330
C
100
AcDbDictionary
  3
STANDARD
350
6C
  0
DICTIONARY
  5
17
102
{ACAD_REACTORS
330
C
102
}
330
C
100
AcDbDictionary
  3
STANDARD
350
18
  0
DICTIONARY
  5
19
102
{ACAD_REACTORS
330
C
102
}
330
C
100
AcDbDictionary
  0
DICTIONARY
  5
47
102
{ACAD_REACTORS
330
C
102
}
330
C
100
AcDbDictionary
  3
A0
350
48
  3
A1
350
49
  3
A2
350
4A
  3
A3
350
4B
  3
A4
350
4C
  3
A5
350
4D
  3
A6
350
4E
  3
A7
350
4F
  3
A8
350
50
  3
A9
350
51
  3
B0
350
52
  3
B1
350
53
  3
B2
350
54
  3
B3
350
55
  3
B4
350
56
  3
B5
350
57
  3
B6
350
58
  3
B7
350
59
  3
B8
350
5A
  3
B9
350
5B
  3
C0
350
5C
  3
C1
350
5D
  3
C2
350
5E
  3
C3
350
5F
  3
C4
350
60
  3
C5
350
61
  3
C6
350
62
  3
C7
350
63
  3
C8
350
64
  3
C9
350
65
  3
D0
350
66
  3
D1
350
67
  3
D2
350
68
  0
DICTIONARY
  5
2A
102
{ACAD_REACTORS
330
C
102
}
330
C
100
AcDbDictionary
  3
2DWIREFRAME
350
2F
  3
BASIC
350
32
  3
BRIGHTEN
350
36
  3
COLORCHANGE
350
3A
  3
CONCEPTUAL
350
34
  3
DIM
350
35
  3
EDGECOLOROFF
350
3D
  3
FACEPATTERN
350
39
  3
FLAT
350
2B
  3
FLATWITHEDGES
350
2C
  3
GOURAUD
350
2D
  3
GOURAUDWITHEDGES
350
2E
  3
HIDDEN
350
31
  3
JITTEROFF
350
3B
  3
LINEPATTERN
350
38
  3
OVERHANGOFF
350
3C
  3
REALISTIC
350
33
  3
SHADED
350
42
  3
SHADED_WITH_EDGES
350
41
  3
SHADES_OF_GRAY
350
3E
  3
SKETCHY
350
3F
  3
THICKEN
350
37
  3
WIREFRAME
350
30
  3
X-RAY
350
40
  0
DICTIONARY
  5
118
102
{ACAD_REACTORS
330
C
102
}
330
C
100
AcDbDictionary
  3
CEPSNID
350
122
  3
CEPSNTYPE
350
121
  3
DIMSTYLEDATA
350
138
  3
FINGERPRINTGUID
350
123
  3
HYPERLINKBASE
350
11B
  3
INSUNITS
350
120
  3
LAYOUTDICT
350
11D
  3
LWETCUNION
350
11F
  3
PLOTSETDICT
350
11E
  3
PSVPSCALE
350
125
  3
PUCSBASE
350
128
  3
PUCSORGBACK
350
12E
  3
PUCSORGBOTTOM
350
12A
  3
PUCSORGFRONT
350
12D
  3
PUCSORGLEFT
350
12B
  3
PUCSORGRIGHT
350
12C
  3
PUCSORGTOP
350
129
  3
PUCSORTHOREF
350
126
  3
PUCSORTHOVIEW
350
127
  3
STYLESHEET
350
11C
  3
TSTACKALIGN
350
119
  3
TSTACKSIZE
350
11A
  3
UCSBASE
350
131
  3
UCSORGBACK
350
137
  3
UCSORGBOTTOM
350
133
  3
UCSORGFRONT
350
136
  3
UCSORGLEFT
350
134
  3
UCSORGRIGHT
350
135
  3
UCSORGTOP
350
132
  3
UCSORTHOREF
350
12F
  3
UCSORTHOVIEW
350
130
  3
VERSIONGUID
350
124
  0
DICTIONARY
  5
139
102
{ACAD_REACTORS
330
C
102
}
330
C
100
AcDbDictionary
  3
CANNOSCALE
350
142
  3
CMLEADERSTYLE
350
13B
  3
CTABLESTYLE
350
13A
  3
DIMASSOC
350
13E
  3
HIDETEXT
350
13F
  3
MSLTSCALE
350
143
  0
XRECORD
  5
141
102
{ACAD_REACTORS
330
140
102
}
330
140
100
AcDbXrecord
102
VTR_0.000_0.000_1.000_1.000_GRIDDISPLAY
 70
     3
102
VTR_0.000_0.000_1.000_1.000_GRIDMAJOR
 70
     5
102
VTR_0.000_0.000_1.000_1.000_DEFAULTLIGHTING
280
     1
102
VTR_0.000_0.000_1.000_1.000_DEFAULTLIGHTINGTYPE
 70
     1
102
VTR_0.000_0.000_1.000_1.000_BRIGHTNESS
141
0.0
102
VTR_0.000_0.000_1.000_1.000_CONTRAST
142
0.0
  0
MATERIAL
  5
45
102
{ACAD_REACTORS
330
43
102
}
102
{ACAD_XDICTIONARY
360
146
102
}
330
43
100
AcDbMaterial
  1
BYBLOCK
  0
MATERIAL
  5
44
102
{ACAD_REACTORS
330
43
102
}
102
{ACAD_XDICTIONARY
360
144
102
}
330
43
100
AcDbMaterial
  1
BYLAYER
  0
MATERIAL
  5
46
102
{ACAD_REACTORS
330
43
102
}
102
{ACAD_XDICTIONARY
360
148
102
}
330
43
100
AcDbMaterial
  1
GLOBAL
  0
ACAD_PROXY_OBJECT
  5
6C
102
{ACAD_REACTORS
330
6B
102
}
330
6B
100
AcDbProxyObject
 90
      499
 91
      505
 93
      610
310
40901902A4063FBFFFFFE056BD1B81E855B9FC0AD7A3703D0AD73F4214DD185B99185C9900AD7A3703D0AC73F90141901A02B5E8DC0F42B1CFC02B5E8DC0F42B1CFE5764000000000000300FC0
340
14
340
0
340
11
340
0
 94
        0
1001
ACAD_MLEADERVER
1070
     2
  0
MLINESTYLE
  5
18
102
{ACAD_REACTORS
330
17
102
}
330
17
100
AcDbMlineStyle
  2
Standard
 70
     0
  3

 62
   256
 51
90.0
 52
90.0
 71
     2
 49
0.5
 62
   256
  6
BYLAYER
 49
-0.5
 62
   256
  6
BYLAYER
  0
ACAD_PROXY_OBJECT
  5
48
102
{ACAD_REACTORS
330
47
102
}
330
47
100
AcDbProxyObject
 90
      499
 91
      503
 93
       41
310
903313A31580
  0
ACAD_PROXY_OBJECT
  5
49
102
{ACAD_REACTORS
330
47
102
}
330
47
100
AcDbProxyObject
 90
      499
 91
      503
 93
      105
310
903313A324000000000000004000
  0
ACAD_PROXY_OBJECT
  5
4A
102
{ACAD_REACTORS
330
47
102
}
330
47
100
AcDbProxyObject
 90
      499
 91
      503
 93
      105
310
903313A344000000000000104000
  0
ACAD_PROXY_OBJECT
  5
4B
102
{ACAD_REACTORS
330
47
102
}
330
47
100
AcDbProxyObject
 90
      499
 91
      503
 93
      105
310
903313A354000000000000144000
  0
ACAD_PROXY_OBJECT
  5
4C
102
{ACAD_REACTORS
330
47
102
}
330
47
100
AcDbProxyObject
 90
      499
 91
      503
 93
      105
310
903313A384000000000000204000
  0
ACAD_PROXY_OBJECT
  5
4D
102
{ACAD_REACTORS
330
47
102
}
330
47
100
AcDbProxyObject
 90
      499
 91
      503
 93
      113
310
904313A31304000000000000244000
  0
ACAD_PROXY_OBJECT
  5
4E
102
{ACAD_REACTORS
330
47
102
}
330
47
100
AcDbProxyObject
 90
      499
 91
      503
 93
      113
310
904313A31364000000000000304000
  0
ACAD_PROXY_OBJECT
  5
4F
102
{ACAD_REACTORS
330
47
102
}
330
47
100
AcDbProxyObject
 90
      499
 91
      503
 93
      113
310
904313A32304000000000000344000
  0
ACAD_PROXY_OBJECT
  5
50
102
{ACAD_REACTORS
330
47
102
}
330
47
100
AcDbProxyObject
 90
      499
 91
      503
 93
      113
310
904313A333040000000000003E4000
  0
ACAD_PROXY_OBJECT
  5
51
102
{ACAD_REACTORS
330
47
102
}
330
47
100
AcDbProxyObject
 90
      499
 91
      503
 93
      113
310
904313A34304000000000000444000
  0
ACAD_PROXY_OBJECT
  5
52
102
{ACAD_REACTORS
330
47
102
}
330
47
100
AcDbProxyObject
 90
      499
 91
      503
 93
      113
310
904313A35304000000000000494000
  0
ACAD_PROXY_OBJECT
  5
53
102
{ACAD_REACTORS
330
47
102
}
330
47
100
AcDbProxyObject
 90
      499
 91
      503
 93
      121
310
905313A3130304000000000000594000
  0
ACAD_PROXY_OBJECT
  5
54
102
{ACAD_REACTORS
330
47
102
}
330
47
100
AcDbProxyObject
 90
      499
 91
      503
 93
      105
310
903323A310000000000000010100
  0
ACAD_PROXY_OBJECT
  5
55
102
{ACAD_REACTORS
330
47
102
}
330
47
100
AcDbProxyObject
 90
      499
 91
      503
 93
      105
310
903343A310000000000000410100
  0
ACAD_PROXY_OBJECT
  5
56
102
{ACAD_REACTORS
330
47
102
}
330
47
100
AcDbProxyObject
 90
      499
 91
      503
 93
      105
310
903383A310000000000000810100
  0
ACAD_PROXY_OBJECT
  5
57
102
{ACAD_REACTORS
330
47
102
}
330
47
100
AcDbProxyObject
 90
      499
 91
      503
 93
      113
310
90431303A310000000000000910100
  0
ACAD_PROXY_OBJECT
  5
58
102
{ACAD_REACTORS
330
47
102
}
330
47
100
AcDbProxyObject
 90
      499
 91
      503
 93
      121
310
9053130303A310000000000001650100
  0
ACAD_PROXY_OBJECT
  5
59
102
{ACAD_REACTORS
330
47
102
}
330
47
100
AcDbProxyObject
 90
      499
 91
      503
 93
      257
310
90E312F31323822203D2031272D3022000000000000200FC000000000000284000
  0
ACAD_PROXY_OBJECT
  5
5A
102
{ACAD_REACTORS
330
47
102
}
330
47
100
AcDbProxyObject
 90
      499
 91
      503
 93
      249
310
90D312F363422203D2031272D3022000000000000240FC000000000000284000
  0
ACAD_PROXY_OBJECT
  5
5B
102
{ACAD_REACTORS
330
47
102
}
330
47
100
AcDbProxyObject
 90
      499
 91
      503
 93
      249
310
90D312F333222203D2031272D3022000000000000280FC000000000000284000
  0
ACAD_PROXY_OBJECT
  5
5C
102
{ACAD_REACTORS
330
47
102
}
330
47
100
AcDbProxyObject
 90
      499
 91
      503
 93
      249
310
90D312F313622203D2031272D30220000000000002C0FC000000000000284000
  0
ACAD_PROXY_OBJECT
  5
5D
102
{ACAD_REACTORS
330
47
102
}
330
47
100
AcDbProxyObject
 90
      499
 91
      503
 93
      249
310
90D332F333222203D2031272D30220000000000002E0FC000000000000284000
  0
ACAD_PROXY_OBJECT
  5
5E
102
{ACAD_REACTORS
330
47
102
}
330
47
100
AcDbProxyObject
 90
      499
 91
      503
 93
      241
310
90C312F3822203D2031272D3022000000000000300FC000000000000284000
  0
ACAD_PROXY_OBJECT
  5
5F
102
{ACAD_REACTORS
330
47
102
}
330
47
100
AcDbProxyObject
 90
      499
 91
      503
 93
      249
310
90D332F313622203D2031272D3022000000000000320FC000000000000284000
  0
ACAD_PROXY_OBJECT
  5
60
102
{ACAD_REACTORS
330
47
102
}
330
47
100
AcDbProxyObject
 90
      499
 91
      503
 93
      241
310
90C312F3422203D2031272D3022000000000000340FC000000000000284000
  0
ACAD_PROXY_OBJECT
  5
61
102
{ACAD_REACTORS
330
47
102
}
330
47
100
AcDbProxyObject
 90
      499
 91
      503
 93
      241
310
90C332F3822203D2031272D3022000000000000360FC000000000000284000
  0
ACAD_PROXY_OBJECT
  5
62
102
{ACAD_REACTORS
330
47
102
}
330
47
100
AcDbProxyObject
 90
      499
 91
      503
 93
      241
310
90C312F3222203D2031272D3022000000000000380FC000000000000284000
  0
ACAD_PROXY_OBJECT
  5
63
102
{ACAD_REACTORS
330
47
102
}
330
47
100
AcDbProxyObject
 90
      499
 91
      503
 93
      241
310
90C332F3422203D2031272D30220000000000003A0FC000000000000284000
  0
ACAD_PROXY_OBJECT
  5
64
102
{ACAD_REACTORS
330
47
102
}
330
47
100
AcDbProxyObject
 90
      499
 91
      503
 93
      161
310
90A3122203D2031272D30224000000000000284000
  0
ACAD_PROXY_OBJECT
  5
65
102
{ACAD_REACTORS
330
47
102
}
330
47
100
AcDbProxyObject
 90
      499
 91
      503
 93
      257
310
90E312D312F3222203D2031272D30220000000000003E0FC000000000000284000
  0
ACAD_PROXY_OBJECT
  5
66
102
{ACAD_REACTORS
330
47
102
}
330
47
100
AcDbProxyObject
 90
      499
 91
      503
 93
      225
310
90A3322203D2031272D302200000000000002100000000000000284000
  0
ACAD_PROXY_OBJECT
  5
67
102
{ACAD_REACTORS
330
47
102
}
330
47
100
AcDbProxyObject
 90
      499
 91
      503
 93
      225
310
90A3622203D2031272D302200000000000006100000000000000284000
  0
ACAD_PROXY_OBJECT
  5
68
102
{ACAD_REACTORS
330
47
102
}
330
47
100
AcDbProxyObject
 90
      499
 91
      503
 93
      249
310
90D31272D3022203D2031272D30220000000000000A100000000000000284000
  0
ACAD_PROXY_OBJECT
  5
2F
102
{ACAD_REACTORS
330
2A
102
}
330
2A
100
AcDbProxyObject
 90
      499
 91
      501
 93
      436
310
42CC9915DA5C99599C985B595049028333333333333E33F0000000000000F90107901411070040501600405405064090741402480A0340
1001
ACAD
1000
AcDbSavedByObjectVersion
1070
     0
  0
ACAD_PROXY_OBJECT
  5
32
102
{ACAD_REACTORS
330
2A
102
}
330
2A
100
AcDbProxyObject
 90
      499
 91
      501
 93
      388
310
4150985CDA58D07406404333333333333E33F0000000000000F90107A41107004050150841D405064090741402480A0350
1001
ACAD
1000
AcDbSavedByObjectVersion
1070
     0
  0
ACAD_PROXY_OBJECT
  5
36
102
{ACAD_REACTORS
330
2A
102
}
330
2A
100
AcDbProxyObject
 90
      499
 91
      501
 93
      428
310
42109C9A59DA1D195B90C409028333333333333E33F0000000000000F9010790141107004050150841D405064090741402480A029950
1001
ACAD
1000
AcDbSavedByObjectVersion
1070
     0
  0
ACAD_PROXY_OBJECT
  5
3A
102
{ACAD_REACTORS
330
2A
102
}
330
2A
100
AcDbProxyObject
 90
      499
 91
      501
 93
      452
310
42D0DBDB1BDC90DA185B99D95104090240C333333333333E33F0000000000000F90108901411070040501508421405064090741402480A0350
1001
ACAD
1000
AcDbSavedByObjectVersion
1070
     0
  0
ACAD_PROXY_OBJECT
  5
34
102
{ACAD_REACTORS
330
2A
102
}
330
2A
100
AcDbProxyObject
 90
      499
 91
      501
 93
      500
310
4290DBDB98D95C1D1D585B10940D028333333333333E33F0000000000000F90107902409070040501000000000018199010841D405064090740C02480A0340
1001
ACAD
1000
AcDbSavedByObjectVersion
1070
     0
  0
ACAD_PROXY_OBJECT
  5
35
102
{ACAD_REACTORS
330
2A
102
}
330
2A
100
AcDbProxyObject
 90
      499
 91
      501
 93
      412
310
40D11A5B50B409028333333333333E33F0000000000000F9010790141107004050150841D405064090741402480A02677FFFFFD0
1001
ACAD
1000
AcDbSavedByObjectVersion
1070
     0
  0
ACAD_PROXY_OBJECT
  5
3D
102
{ACAD_REACTORS
330
2A
102
}
330
2A
100
AcDbProxyObject
 90
      499
 91
      501
 93
      452
310
43115919D950DBDB1BDC93D999916409028333333333333E33F0000000000000F9010790141107004050150841D405064090741402480A0350
1001
ACAD
1000
AcDbSavedByObjectVersion
1070
     0
  0
ACAD_PROXY_OBJECT
  5
39
102
{ACAD_REACTORS
330
2A
102
}
330
2A
100
AcDbProxyObject
 90
      499
 91
      501
 93
      444
310
42D19858D95C185D1D195C9B90F409028333333333333E33F0000000000000F9010790141107004050150841D405064090741402480A0350
1001
ACAD
1000
AcDbSavedByObjectVersion
1070
     0
  0
ACAD_PROXY_OBJECT
  5
2B
102
{ACAD_REACTORS
330
2A
102
}
330
2A
100
AcDbProxyObject
 90
      499
 91
      501
 93
      380
310
41119B185D240901404333333333333E33F0000000000000F9010740A907004050150841D405064090741402480A1B50
1001
ACAD
1000
AcDbSavedByObjectVersion
1070
     0
  0
ACAD_PROXY_OBJECT
  5
2C
102
{ACAD_REACTORS
330
2A
102
}
330
2A
100
AcDbProxyObject
 90
      499
 91
      501
 93
      468
310
43519B185D15DA5D1A115919D95CD0140901404333333333333E33F0000000000000F90107409019070040501600405405064090741402480A1B50
1001
ACAD
1000
AcDbSavedByObjectVersion
1070
     0
  0
ACAD_PROXY_OBJECT
  5
2D
102
{ACAD_REACTORS
330
2A
102
}
330
2A
100
AcDbProxyObject
 90
      499
 91
      501
 93
      404
310
41D1DBDD5C985D5910240902404333333333333E33F0000000000000F9010740A9070040501641D405064090741402480A1B50
1001
ACAD
1000
AcDbSavedByObjectVersion
1070
     0
  0
ACAD_PROXY_OBJECT
  5
2E
102
{ACAD_REACTORS
330
2A
102
}
330
2A
100
AcDbProxyObject
 90
      499
 91
      501
 93
      492
310
4411DBDD5C985D5915DA5D1A115919D95CD0340902404333333333333E33F0000000000000F90107409019070040501600405405064090741402480A1B50
1001
ACAD
1000
AcDbSavedByObjectVersion
1070
     0
  0
ACAD_PROXY_OBJECT
  5
31
102
{ACAD_REACTORS
330
2A
102
}
330
2A
100
AcDbProxyObject
 90
      499
 91
      501
 93
      476
310
41921A5919195B90640502408333333333333E33F0000000000000F901079024090700405020000000000001110200405405064090740C02480A0340
1001
ACAD
1000
AcDbSavedByObjectVersion
1070
     0
  0
ACAD_PROXY_OBJECT
  5
3B
102
{ACAD_REACTORS
330
2A
102
}
330
2A
100
AcDbProxyObject
 90
      499
 91
      501
 93
      428
310
42529A5D1D195C93D999914409028333333333333E33F0000000000000F9010790141107004050150A41D405064090741402480A0350
1001
ACAD
1000
AcDbSavedByObjectVersion
1070
     0
  0
ACAD_PROXY_OBJECT
  5
38
102
{ACAD_REACTORS
330
2A
102
}
330
2A
100
AcDbProxyObject
 90
      499
 91
      501
 93
      444
310
42D31A5B995C185D1D195C9B90E409028333333333333E33F0000000000000F9010790141107004050750841D405064090741402483A0350
1001
ACAD
1000
AcDbSavedByObjectVersion
1070
     0
  0
ACAD_PROXY_OBJECT
  5
3C
102
{ACAD_REACTORS
330
2A
102
}
330
2A
100
AcDbProxyObject
 90
      499
 91
      501
 93
      444
310
42D3DD995C9A185B99D3D999915409028333333333333E33F0000000000000F9010790141107004050150941D405064090741402480A0350
1001
ACAD
1000
AcDbSavedByObjectVersion
1070
     0
  0
ACAD_PROXY_OBJECT
  5
33
102
{ACAD_REACTORS
330
2A
102
}
330
2A
100
AcDbProxyObject
 90
      499
 91
      501
 93
      428
310
425499585B1A5CDD1A58D08409038333333333333E33F0000000000000F9010740A907004050150800405405064090740C02480A1B40
1001
ACAD
1000
AcDbSavedByObjectVersion
1070
     0
  0
ACAD_PROXY_OBJECT
  5
42
102
{ACAD_REACTORS
330
2A
102
}
330
2A
100
AcDbProxyObject
 90
      499
 91
      501
 93
      420
310
4194DA1859195911B40902404333333333333E33F0000000000000F9010740A41107004050150800405405064090840C02480A0B40
1001
ACAD
1000
AcDbSavedByObjectVersion
1070
     0
  0
ACAD_PROXY_OBJECT
  5
41
102
{ACAD_REACTORS
330
2A
102
}
330
2A
100
AcDbProxyObject
 90
      499
 91
      501
 93
      516
310
4454DA18591959081DDA5D1A08195919D95CD1A40902404333333333333E33F0000000000000F901074090142907004050250800405405064090740C02480A0B40
1001
ACAD
1000
AcDbSavedByObjectVersion
1070
     0
  0
ACAD_PROXY_OBJECT
  5
3E
102
{ACAD_REACTORS
330
2A
102
}
330
2A
100
AcDbProxyObject
 90
      499
 91
      501
 93
      532
310
4394DA1859195CC81BD98811DC985E5174090240C333333333333E33F0000000000000F901079024090741D01000000000000111010841D405064090740C02480A0340
1001
ACAD
1000
AcDbSavedByObjectVersion
1070
     0
  0
ACAD_PROXY_OBJECT
  5
3F
102
{ACAD_REACTORS
330
2A
102
}
330
2A
100
AcDbProxyObject
 90
      499
 91
      501
 93
      476
310
41D4DAD95D18DA1E51840502408333333333333E33F0000000000000F901079024090741D01000000000000111010B41D405064090741802480A0340
1001
ACAD
1000
AcDbSavedByObjectVersion
1070
     0
  0
ACAD_PROXY_OBJECT
  5
37
102
{ACAD_REACTORS
330
2A
102
}
330
2A
100
AcDbProxyObject
 90
      499
 91
      501
 93
      412
310
41D51A1A58DAD95B90D409028333333333333E33F0000000000000F9010790141107004050150C41D405064090741402480A0350
1001
ACAD
1000
AcDbSavedByObjectVersion
1070
     0
  0
ACAD_PROXY_OBJECT
  5
30
102
{ACAD_REACTORS
330
2A
102
}
330
2A
100
AcDbProxyObject
 90
      499
 91
      501
 93
      420
310
4255DA5C99599C985B595059028333333333333E33F0000000000000F90107901411070040501600405405064090740C02480A0340
1001
ACAD
1000
AcDbSavedByObjectVersion
1070
     0
  0
ACAD_PROXY_OBJECT
  5
40
102
{ACAD_REACTORS
330
2A
102
}
330
2A
100
AcDbProxyObject
 90
      499
 91
      501
 93
      404
310
41560B54985E51940902404000000000000E03F0000000000000F9010740501907004050150841D405064090740C02480A1B40
1001
ACAD
1000
AcDbSavedByObjectVersion
1070
     0
  0
XRECORD
  5
122
102
{ACAD_REACTORS
330
118
102
}
330
118
100
AcDbXrecord
340
0
  0
XRECORD
  5
121
102
{ACAD_REACTORS
330
118
102
}
330
118
100
AcDbXrecord
 90
        0
  0
XRECORD
  5
138
102
{ACAD_REACTORS
330
118
102
}
330
118
100
AcDbXrecord
1000
DSTYLE
1002
{
1070
   279
 70
     2
1070
   340
340
11
1002
}
  0
XRECORD
  5
123
102
{ACAD_REACTORS
330
118
102
}
330
118
100
AcDbXrecord
  1
{3DFE91CF-89C2-4A87-AEE1-ADEB9C41266B}
  0
XRECORD
  5
11B
102
{ACAD_REACTORS
330
118
102
}
330
118
100
AcDbXrecord
  1

  0
XRECORD
  5
120
102
{ACAD_REACTORS
330
118
102
}
330
118
100
AcDbXrecord
 90
        4
  0
XRECORD
  5
11D
102
{ACAD_REACTORS
330
118
102
}
330
118
100
AcDbXrecord
340
1A
  0
XRECORD
  5
11F
102
{ACAD_REACTORS
330
118
102
}
330
118
100
AcDbXrecord
 90
    10781
  0
XRECORD
  5
11E
102
{ACAD_REACTORS
330
118
102
}
330
118
100
AcDbXrecord
340
19
  0
XRECORD
  5
125
102
{ACAD_REACTORS
330
118
102
}
330
118
100
AcDbXrecord
 40
0.0
  0
XRECORD
  5
128
102
{ACAD_REACTORS
330
118
102
}
330
118
100
AcDbXrecord
340
0
  0
XRECORD
  5
12E
102
{ACAD_REACTORS
330
118
102
}
330
118
100
AcDbXrecord
 10
0.0
 20
0.0
 30
0.0
  0
XRECORD
  5
12A
102
{ACAD_REACTORS
330
118
102
}
330
118
100
AcDbXrecord
 10
0.0
 20
0.0
 30
0.0
  0
XRECORD
  5
12D
102
{ACAD_REACTORS
330
118
102
}
330
118
100
AcDbXrecord
 10
0.0
 20
0.0
 30
0.0
  0
XRECORD
  5
12B
102
{ACAD_REACTORS
330
118
102
}
330
118
100
AcDbXrecord
 10
0.0
 20
0.0
 30
0.0
  0
XRECORD
  5
12C
102
{ACAD_REACTORS
330
118
102
}
330
118
100
AcDbXrecord
 10
0.0
 20
0.0
 30
0.0
  0
XRECORD
  5
129
102
{ACAD_REACTORS
330
118
102
}
330
118
100
AcDbXrecord
 10
0.0
 20
0.0
 30
0.0
  0
XRECORD
  5
126
102
{ACAD_REACTORS
330
118
102
}
330
118
100
AcDbXrecord
340
0
  0
XRECORD
  5
127
102
{ACAD_REACTORS
330
118
102
}
330
118
100
AcDbXrecord
 70
     0
  0
XRECORD
  5
11C
102
{ACAD_REACTORS
330
118
102
}
330
118
100
AcDbXrecord
  1

  0
XRECORD
  5
119
102
{ACAD_REACTORS
330
118
102
}
330
118
100
AcDbXrecord
 90
        1
  0
XRECORD
  5
11A
102
{ACAD_REACTORS
330
118
102
}
330
118
100
AcDbXrecord
 90
       70
  0
XRECORD
  5
131
102
{ACAD_REACTORS
330
118
102
}
330
118
100
AcDbXrecord
340
0
  0
XRECORD
  5
137
102
{ACAD_REACTORS
330
118
102
}
330
118
100
AcDbXrecord
 10
0.0
 20
0.0
 30
0.0
  0
XRECORD
  5
133
102
{ACAD_REACTORS
330
118
102
}
330
118
100
AcDbXrecord
 10
0.0
 20
0.0
 30
0.0
  0
XRECORD
  5
136
102
{ACAD_REACTORS
330
118
102
}
330
118
100
AcDbXrecord
 10
0.0
 20
0.0
 30
0.0
  0
XRECORD
  5
134
102
{ACAD_REACTORS
330
118
102
}
330
118
100
AcDbXrecord
 10
0.0
 20
0.0
 30
0.0
  0
XRECORD
  5
135
102
{ACAD_REACTORS
330
118
102
}
330
118
100
AcDbXrecord
 10
0.0
 20
0.0
 30
0.0
  0
XRECORD
  5
132
102
{ACAD_REACTORS
330
118
102
}
330
118
100
AcDbXrecord
 10
0.0
 20
0.0
 30
0.0
  0
XRECORD
  5
12F
102
{ACAD_REACTORS
330
118
102
}
330
118
100
AcDbXrecord
340
0
  0
XRECORD
  5
130
102
{ACAD_REACTORS
330
118
102
}
330
118
100
AcDbXrecord
 70
     0
  0
XRECORD
  5
124
102
{ACAD_REACTORS
330
118
102
}
330
118
100
AcDbXrecord
  1
{FAEB1C32-E019-11D5-929B-00C0DF256EC4}
  0
DICTIONARYVAR
  5
142
102
{ACAD_REACTORS
330
139
102
}
330
139
100
DictionaryVariables
280
     0
  1
1:1
  0
DICTIONARYVAR
  5
13B
102
{ACAD_REACTORS
330
139
102
}
330
139
100
DictionaryVariables
280
     0
  1
Standard
  0
DICTIONARYVAR
  5
13A
102
{ACAD_REACTORS
330
139
102
}
330
139
100
DictionaryVariables
280
     0
  1
Standard
  0
DICTIONARYVAR
  5
13E
102
{ACAD_REACTORS
330
139
102
}
330
139
100
DictionaryVariables
280
     0
  1
2
  0
DICTIONARYVAR
  5
13F
102
{ACAD_REACTORS
330
139
102
}
330
139
100
DictionaryVariables
280
     0
  1
1
  0
DICTIONARYVAR
  5
143
102
{ACAD_REACTORS
330
139
102
}
330
139
100
DictionaryVariables
280
     0
  1
1
  0
DICTIONARY
  5
146
330
45
100
AcDbDictionary
280
     1
  3
ACAD_XREC_ROUNDTRIP
360
147
  0
DICTIONARY
  5
144
330
44
100
AcDbDictionary
280
     1
  3
ACAD_XREC_ROUNDTRIP
360
145
  0
DICTIONARY
  5
148
330
46
100
AcDbDictionary
280
     1
  3
ACAD_XREC_ROUNDTRIP
360
149
  0
XRECORD
  5
147
102
{ACAD_REACTORS
330
146
102
}
330
146
100
AcDbXrecord
102
MATERIAL
148
0.0
149
0.0
149
0.0
 93
        0
 94
      127
282
     0
 72
     1
 77
     1
171
     1
175
     1
179
     1
273
     0
  0
XRECORD
  5
145
102
{ACAD_REACTORS
330
144
102
}
330
144
100
AcDbXrecord
102
MATERIAL
148
0.0
149
0.0
149
0.0
 93
        0
 94
      127
282
     0
 72
     1
 77
     1
171
     1
175
     1
179
     1
273
     0
  0
XRECORD
  5
149
102
{ACAD_REACTORS
330
148
102
}
330
148
100
AcDbXrecord
102
MATERIAL
148
0.0
149
0.0
149
0.0
 93
        0
 94
      127
282
     0
 72
     1
 77
     1
171
     1
175
     1
179
     1
273
     0
  0
ENDSEC
  0
EOF
